# xmcd
#
# Track frame offsets:
#	150
#	18312
#	38094
#	60792
#	77637
#	98644
#	113046
#	128659
#	145691
#	169556
#	189147
#	212622
#	236183
#	254993
#	270346
#	303700
#
# Disc length: 4064 seconds
#
# Revision: 1
# Processed by: cddbd v1.5.2PL0 Copyright (c) Steve Scherf et al.
# Submitted via: audiograbber 1.83.01
#
DISCID=cb0fde10
DTITLE=70'S and 80'S VOL 8 - SC8455
DYEAR=1900
DGENRE=KARAOKE
TTITLE0=SWEETHEARTS OF THE RODEO - MIDNIGHT GIRL/SUNSET TOWN
TTITLE1=CHARLIE DANIELS BAND - DRINKIN' MY BABY GOODBYE
TTITLE2=KENNY ROGERS - TOMB OF THE UKNOWN LOVE
TTITLE3=CHARLY MCCLAIN - RADIO HEART
TTITLE4=LACY J DALTON - TAKIN' IT EASY
TTITLE5=MICKEY GILLEY - THAT'S ALL THAT MATTERS
TTITLE6=BARBARA MANDRELL - ONLY A LONELY HEART KNOWS
TTITLE7=BJ THOMAS - NEW LOOKS FROM AN OLD LOVER
TTITLE8=BILL ANDERSON - THE CORNER OF MY LIFE
TTITLE9=JOHN CONLEE - MISS EMILY'S PICTURE
TTITLE10=RONNIE MILSAP - PURE LOVE
TTITLE11=RESTLESS HEART - WHEELS
TTITLE12=NITTY GRITTY DIRT BAND - FISHIN' IN THE DARK
TTITLE13=DAVID HOUSTON - A WOMAN ALWAYS KNOWS
TTITLE14=RODNEY CROWELL - I COULDN'T LEAVE YOU IF I TRIED
TTITLE15=BLANK - DATA
EXTD=
EXTT0=
EXTT1=
EXTT2=
EXTT3=
EXTT4=
EXTT5=
EXTT6=
EXTT7=
EXTT8=
EXTT9=
EXTT10=
EXTT11=
EXTT12=
EXTT13=
EXTT14=
EXTT15=
PLAYORDER=
